<mxfile host="app.diagrams.net" modified="2024-03-02T12:32:22.248Z" agent="Mozilla/5.0 (Windows NT 10.0; Win64; x64) AppleWebKit/537.36 (KHTML, like Gecko) Chrome/122.0.0.0 Safari/537.36" etag="c51wLefeNyWtcbj6zRK3" version="24.0.0" type="github">
  <diagram name="Page-1" id="58cdce13-f638-feb5-8d6f-7d28b1aa9fa0">
    <mxGraphModel dx="925" dy="481" grid="1" gridSize="10" guides="1" tooltips="1" connect="1" arrows="1" fold="1" page="1" pageScale="1" pageWidth="1100" pageHeight="850" background="none" math="0" shadow="0">
      <root>
        <mxCell id="0" />
        <mxCell id="1" parent="0" />
        <mxCell id="D25ssDc_pbHqSiNVfZR6-2" value="" style="rounded=0;whiteSpace=wrap;html=1;" vertex="1" parent="1">
          <mxGeometry x="100" y="110" width="660" height="230" as="geometry" />
        </mxCell>
        <mxCell id="D25ssDc_pbHqSiNVfZR6-36" value="" style="edgeStyle=orthogonalEdgeStyle;rounded=0;orthogonalLoop=1;jettySize=auto;html=1;" edge="1" parent="1" source="D25ssDc_pbHqSiNVfZR6-3" target="D25ssDc_pbHqSiNVfZR6-5">
          <mxGeometry relative="1" as="geometry" />
        </mxCell>
        <mxCell id="D25ssDc_pbHqSiNVfZR6-3" value="" style="ellipse;html=1;shape=startState;fillColor=#000000;strokeColor=#ff0000;rounded=1;shadow=0;comic=0;labelBackgroundColor=none;fontFamily=Verdana;fontSize=12;fontColor=#000000;align=center;direction=south;" vertex="1" parent="1">
          <mxGeometry x="130" y="135" width="30" height="30" as="geometry" />
        </mxCell>
        <mxCell id="D25ssDc_pbHqSiNVfZR6-42" value="" style="edgeStyle=orthogonalEdgeStyle;rounded=0;orthogonalLoop=1;jettySize=auto;html=1;" edge="1" parent="1" source="D25ssDc_pbHqSiNVfZR6-4" target="D25ssDc_pbHqSiNVfZR6-41">
          <mxGeometry relative="1" as="geometry" />
        </mxCell>
        <mxCell id="D25ssDc_pbHqSiNVfZR6-4" value="Разтоварване" style="rounded=1;whiteSpace=wrap;html=1;arcSize=24;fillColor=#ffffc0;strokeColor=#ff0000;shadow=0;comic=0;labelBackgroundColor=none;fontFamily=Verdana;fontSize=12;fontColor=#000000;align=center;" vertex="1" parent="1">
          <mxGeometry x="430" y="250" width="120" height="60" as="geometry" />
        </mxCell>
        <mxCell id="D25ssDc_pbHqSiNVfZR6-34" value="" style="edgeStyle=orthogonalEdgeStyle;rounded=0;orthogonalLoop=1;jettySize=auto;html=1;" edge="1" parent="1" source="D25ssDc_pbHqSiNVfZR6-5" target="D25ssDc_pbHqSiNVfZR6-7">
          <mxGeometry relative="1" as="geometry" />
        </mxCell>
        <mxCell id="D25ssDc_pbHqSiNVfZR6-5" value="Начало на доставка" style="rounded=1;whiteSpace=wrap;html=1;arcSize=24;fillColor=#ffffc0;strokeColor=#ff0000;shadow=0;comic=0;labelBackgroundColor=none;fontFamily=Verdana;fontSize=12;fontColor=#000000;align=center;" vertex="1" parent="1">
          <mxGeometry x="240" y="120" width="120" height="60" as="geometry" />
        </mxCell>
        <mxCell id="D25ssDc_pbHqSiNVfZR6-37" value="" style="edgeStyle=orthogonalEdgeStyle;rounded=0;orthogonalLoop=1;jettySize=auto;html=1;" edge="1" parent="1" source="D25ssDc_pbHqSiNVfZR6-7" target="D25ssDc_pbHqSiNVfZR6-10">
          <mxGeometry relative="1" as="geometry" />
        </mxCell>
        <mxCell id="D25ssDc_pbHqSiNVfZR6-7" value="Натоварване на доставен продукт" style="rounded=1;whiteSpace=wrap;html=1;arcSize=24;fillColor=#ffffc0;strokeColor=#ff0000;shadow=0;comic=0;labelBackgroundColor=none;fontFamily=Verdana;fontSize=12;fontColor=#000000;align=center;" vertex="1" parent="1">
          <mxGeometry x="430" y="120" width="120" height="60" as="geometry" />
        </mxCell>
        <mxCell id="D25ssDc_pbHqSiNVfZR6-38" value="" style="edgeStyle=orthogonalEdgeStyle;rounded=0;orthogonalLoop=1;jettySize=auto;html=1;" edge="1" parent="1" source="D25ssDc_pbHqSiNVfZR6-10" target="D25ssDc_pbHqSiNVfZR6-11">
          <mxGeometry relative="1" as="geometry" />
        </mxCell>
        <mxCell id="D25ssDc_pbHqSiNVfZR6-10" value="Пътуване до място за доставка" style="rounded=1;whiteSpace=wrap;html=1;arcSize=24;fillColor=#ffffc0;strokeColor=#ff0000;shadow=0;comic=0;labelBackgroundColor=none;fontFamily=Verdana;fontSize=12;fontColor=#000000;align=center;" vertex="1" parent="1">
          <mxGeometry x="630" y="120" width="120" height="60" as="geometry" />
        </mxCell>
        <mxCell id="D25ssDc_pbHqSiNVfZR6-39" value="" style="edgeStyle=orthogonalEdgeStyle;rounded=0;orthogonalLoop=1;jettySize=auto;html=1;" edge="1" parent="1" source="D25ssDc_pbHqSiNVfZR6-11" target="D25ssDc_pbHqSiNVfZR6-4">
          <mxGeometry relative="1" as="geometry" />
        </mxCell>
        <mxCell id="D25ssDc_pbHqSiNVfZR6-11" value="Пристигане на място за доставка" style="rounded=1;whiteSpace=wrap;html=1;arcSize=24;fillColor=#ffffc0;strokeColor=#ff0000;shadow=0;comic=0;labelBackgroundColor=none;fontFamily=Verdana;fontSize=12;fontColor=#000000;align=center;" vertex="1" parent="1">
          <mxGeometry x="630" y="250" width="120" height="60" as="geometry" />
        </mxCell>
        <mxCell id="D25ssDc_pbHqSiNVfZR6-35" value="Нова поръчка" style="text;html=1;align=center;verticalAlign=middle;whiteSpace=wrap;rounded=0;" vertex="1" parent="1">
          <mxGeometry x="115" y="170" width="60" height="30" as="geometry" />
        </mxCell>
        <mxCell id="D25ssDc_pbHqSiNVfZR6-40" value="" style="ellipse;html=1;shape=endState;fillColor=#000000;strokeColor=#ff0000;rounded=1;shadow=0;comic=0;labelBackgroundColor=none;fontFamily=Verdana;fontSize=12;fontColor=#000000;align=center;" vertex="1" parent="1">
          <mxGeometry x="130" y="265" width="30" height="30" as="geometry" />
        </mxCell>
        <mxCell id="D25ssDc_pbHqSiNVfZR6-43" value="" style="edgeStyle=orthogonalEdgeStyle;rounded=0;orthogonalLoop=1;jettySize=auto;html=1;" edge="1" parent="1" source="D25ssDc_pbHqSiNVfZR6-41" target="D25ssDc_pbHqSiNVfZR6-40">
          <mxGeometry relative="1" as="geometry" />
        </mxCell>
        <mxCell id="D25ssDc_pbHqSiNVfZR6-41" value="Потвърждение и подпис" style="rounded=1;whiteSpace=wrap;html=1;arcSize=24;fillColor=#ffffc0;strokeColor=#ff0000;shadow=0;comic=0;labelBackgroundColor=none;fontFamily=Verdana;fontSize=12;fontColor=#000000;align=center;" vertex="1" parent="1">
          <mxGeometry x="240" y="250" width="120" height="60" as="geometry" />
        </mxCell>
        <mxCell id="D25ssDc_pbHqSiNVfZR6-44" value="Завършване на доставка" style="text;html=1;align=center;verticalAlign=middle;whiteSpace=wrap;rounded=0;" vertex="1" parent="1">
          <mxGeometry x="115" y="300" width="70" height="30" as="geometry" />
        </mxCell>
      </root>
    </mxGraphModel>
  </diagram>
</mxfile>
